<?xml version="1.0" standalone="no"?>
<!DOCTYPE svg PUBLIC "-//W3C//DTD SVG 20010904//EN"
 "http://www.w3.org/TR/2001/REC-SVG-20010904/DTD/svg10.dtd">
<svg version="1.0" xmlns="http://www.w3.org/2000/svg"
 width="240.000000pt" height="240.000000pt" viewBox="0 0 240.000000 240.000000"
 preserveAspectRatio="xMidYMid meet">
<metadata>
Created by potrace 1.11, written by Peter Selinger 2001-2013
</metadata>
<g transform="translate(0.000000,240.000000) scale(0.100000,-0.100000)"
fill="#000000" stroke="none">
<path d="M554 2171 c-203 -55 -345 -190 -407 -386 -17 -57 -22 -94 -22 -195 0
-143 20 -223 83 -345 91 -172 217 -307 557 -590 237 -198 366 -322 407 -394
12 -22 25 -41 28 -41 3 0 16 19 28 41 41 72 170 197 407 394 339 282 466 417
557 590 108 207 116 437 23 633 -135 284 -526 398 -804 235 -64 -37 -141 -112
-176 -172 -16 -28 -32 -51 -35 -51 -3 0 -18 23 -35 51 -57 96 -161 178 -281
220 -87 30 -238 35 -330 10z m311 -200 c101 -50 198 -160 271 -310 33 -66 61
-120 64 -120 3 0 16 25 30 57 73 170 194 318 304 372 146 72 336 40 451 -75
127 -127 151 -344 60 -544 -65 -141 -192 -279 -475 -515 -113 -93 -242 -204
-287 -244 l-83 -74 -82 74 c-46 41 -175 151 -288 245 -344 286 -464 432 -515
628 -40 155 1 331 101 431 80 80 177 115 302 110 68 -3 95 -9 147 -35z"/>
</g>
</svg>
